<?xml version="1.0" standalone="no"?>
<!DOCTYPE svg PUBLIC "-//W3C//DTD SVG 20010904//EN"
 "http://www.w3.org/TR/2001/REC-SVG-20010904/DTD/svg10.dtd">
<svg version="1.0" xmlns="http://www.w3.org/2000/svg"
 width="512.000000pt" height="512.000000pt" viewBox="0 0 512.000000 512.000000"
 preserveAspectRatio="xMidYMid meet">

<g transform="translate(0.000000,512.000000) scale(0.100000,-0.100000)"
fill="#000000" stroke="none">
<path d="M78 4189 c-23 -12 -46 -35 -58 -59 -20 -39 -20 -56 -20 -1420 0
-1364 0 -1381 20 -1420 35 -68 72 -80 252 -80 l153 0 24 -52 c49 -107 180
-208 310 -238 105 -25 251 5 345 69 l45 31 53 -34 c225 -143 521 -70 639 159
l34 65 985 0 985 0 24 -52 c30 -65 128 -164 194 -197 137 -66 276 -67 412 -1
70 34 148 112 186 185 l34 65 153 0 c180 0 217 12 252 80 19 38 20 58 20 517
l0 478 -153 460 c-85 253 -161 475 -171 492 -9 19 -34 42 -56 53 -38 19 -58
20 -540 20 l-500 0 0 390 c0 372 -1 393 -20 430 -13 26 -34 47 -60 60 -39 20
-55 20 -1772 20 -1706 -1 -1734 -1 -1770 -21z m3322 -1029 l0 -750 -1550 0
-1550 0 0 750 0 750 1550 0 1550 0 0 -750z m620 -540 c0 -372 1 -393 20 -430
13 -26 34 -47 60 -60 37 -19 58 -20 380 -20 l340 0 0 -300 0 -300 -63 0 -62 0
-25 53 c-30 65 -129 166 -193 196 -139 67 -276 67 -414 0 -66 -33 -164 -132
-194 -196 l-24 -53 -72 0 -73 0 0 750 0 750 160 0 160 0 0 -390z m637 105 c51
-154 96 -288 99 -297 5 -17 -10 -18 -215 -18 l-221 0 0 300 0 301 122 -3 121
-3 94 -280z m-1257 -915 l0 -300 -763 0 -762 0 -25 53 c-13 28 -52 79 -85 113
-152 153 -377 176 -563 58 l-53 -34 -45 31 c-94 64 -240 94 -345 69 -130 -30
-261 -131 -310 -237 l-24 -53 -62 0 -63 0 0 300 0 300 1550 0 1550 0 0 -300z
m-2480 -320 c45 -23 80 -80 80 -131 0 -74 -76 -149 -151 -149 -46 0 -108 39
-130 82 -37 72 -14 151 57 194 48 29 92 30 144 4z m600 0 c45 -23 80 -80 80
-131 0 -74 -76 -149 -151 -149 -46 0 -108 39 -130 82 -37 72 -14 151 57 194
48 29 92 30 144 4z m2820 0 c45 -23 80 -80 80 -131 0 -74 -76 -149 -151 -149
-46 0 -108 39 -130 82 -37 72 -14 151 57 194 48 29 92 30 144 4z"/>
<path d="M758 3689 c-23 -12 -46 -35 -58 -59 -19 -37 -20 -58 -20 -470 0 -412
1 -433 20 -470 23 -45 80 -80 130 -80 50 0 107 35 130 80 19 37 20 58 20 470
0 412 -1 433 -20 470 -37 73 -127 99 -202 59z"/>
<path d="M1438 3689 c-23 -12 -46 -35 -58 -59 -19 -37 -20 -58 -20 -470 0
-412 1 -433 20 -470 23 -45 80 -80 130 -80 50 0 107 35 130 80 19 37 20 58 20
470 0 412 -1 433 -20 470 -37 73 -127 99 -202 59z"/>
<path d="M2118 3689 c-23 -12 -46 -35 -58 -59 -19 -37 -20 -58 -20 -470 0
-412 1 -433 20 -470 23 -45 80 -80 130 -80 50 0 107 35 130 80 19 37 20 58 20
470 0 412 -1 433 -20 470 -37 73 -127 99 -202 59z"/>
<path d="M2798 3689 c-23 -12 -46 -35 -58 -59 -19 -37 -20 -58 -20 -470 0
-412 1 -433 20 -470 23 -45 80 -80 130 -80 50 0 107 35 130 80 19 37 20 58 20
470 0 412 -1 433 -20 470 -37 73 -127 99 -202 59z"/>
</g>
</svg>
